<svg width="90" height="90" viewBox="0 0 90 90" fill="none" xmlns="http://www.w3.org/2000/svg">
<circle cx="20" cy="20" r="20" fill="white"/>
<path d="M24.2725 21.1355V33.6058C24.2725 34.4686 24.972 35.1683 25.835 35.1683H38.0437C38.9067 35.1683 39.6062 34.4686 39.6062 33.6058V21.1355C39.6062 20.2727 38.9067 19.573 38.0437 19.573H25.835C24.972 19.573 24.2725 20.2725 24.2725 21.1355ZM27.3975 22.698H36.4812V32.0433H27.3975V22.698Z" fill="#3766CC"/>
<path d="M46.5193 22.698H54.5929C55.4557 22.698 56.1554 21.9983 56.1554 21.1355C56.1554 20.2727 55.4557 19.573 54.5929 19.573H46.5193C45.6563 19.573 44.9568 20.2727 44.9568 21.1355C44.9568 21.9983 45.6563 22.698 46.5193 22.698Z" fill="#3766CC"/>
<path d="M24.2725 42.6968C24.2725 43.5596 24.972 44.2593 25.835 44.2593H62.6664C63.5292 44.2593 64.2289 43.5596 64.2289 42.6968C64.2289 41.834 63.5292 41.1343 62.6664 41.1343H25.835C24.972 41.1343 24.2725 41.8338 24.2725 42.6968Z" fill="#3766CC"/>
<path d="M46.5193 29.929H54.5929C55.4557 29.929 56.1554 29.2293 56.1554 28.3665C56.1554 27.5036 55.4557 26.804 54.5929 26.804H46.5193C45.6563 26.804 44.9568 27.5036 44.9568 28.3665C44.9568 29.2293 45.6563 29.929 46.5193 29.929Z" fill="#3766CC"/>
<path d="M85.8068 22.7719C85.8068 15.73 80.0781 10.0008 73.0365 10C73.0362 10 73.036 10 73.0357 10H49.4821C48.6191 10 47.9196 10.6997 47.9196 11.5625C47.9196 12.4253 48.6191 13.125 49.4821 13.125H64.6732C61.8979 15.5333 60.2623 19.0966 60.2623 22.7719C60.2623 29.1261 65.1621 34.6756 71.4732 35.4487V82.5812H50.4935C50.2473 81.6858 50.1109 80.7822 50.708 79.9767L54.2765 75.1636H56.0398C61.9646 75.1636 66.7849 70.3433 66.7849 64.4184V62.478C66.7849 56.5531 61.9646 51.733 56.0398 51.733H51.9904C50.4612 49.8345 48.5201 48.5181 45.9743 48.6295C44.1043 48.7122 42.4623 49.6823 41.4832 51.2555C40.3348 50.3027 38.8652 49.8019 37.3746 49.8427C35.7291 49.8887 34.2365 50.6081 33.1516 51.7331H32.9415C32.9412 51.7331 32.9409 51.7331 32.9405 51.7331C30.0707 51.7331 27.3726 52.8506 25.343 54.88C23.3134 56.9094 22.1955 59.608 22.1955 62.4781V64.4188C22.1955 69.812 26.1904 74.2887 31.3762 75.0486V82.5811H17.3184V13.125H35.7326C36.5955 13.125 37.2951 12.4253 37.2951 11.5625C37.2951 10.6997 36.5955 10 35.7326 10H15.7559C14.8929 10 14.1934 10.6997 14.1934 11.5625V84.1437C14.1934 85.0066 14.8929 85.7062 15.7559 85.7062H31.377V88.4375C31.377 89.3003 32.0765 90 32.9395 90C33.8024 90 34.502 89.3003 34.502 88.4375L34.5021 56.1097C34.5021 54.4848 35.8077 53.0131 37.4627 52.9673C39.1543 52.9231 40.598 54.3217 40.598 56.0158V64.7798C40.598 66.7753 42.2215 68.3986 44.2168 68.3986H44.2177H46.3324C49.1468 68.3586 51.0349 65.0445 49.2845 62.6858L44.1734 55.7806C43.6452 54.9987 43.5877 53.982 44.0074 53.1392C44.2057 52.7414 44.8076 51.8097 46.113 51.752C47.2793 51.7027 48.3902 52.2464 49.1156 53.1477L55.9804 61.6697C57.0871 63.0961 57.5074 65.5408 56.3752 67.0845L48.1971 78.1155C47.052 79.6617 46.9821 81.4762 47.4482 83.2841L48.8051 88.8103C49.0065 89.6306 49.8738 90.1564 50.6951 89.9552C51.5331 89.7494 52.0457 88.9033 51.8399 88.065L51.2609 85.7062H73.0357C73.8985 85.7062 74.5982 85.0066 74.5982 84.1437V35.4447C80.9052 34.6709 85.8068 29.2848 85.8068 22.7719ZM54.5076 54.8581H56.0398C60.2415 54.8581 63.6599 58.2764 63.6599 62.4781V64.4186C63.6599 68.4287 60.5462 71.7253 56.6093 72.0173L59.121 68.6297C60.9798 66.1217 60.2295 62.0036 58.4238 59.72L56.4841 57.312L54.5076 54.8581ZM25.3205 64.4188V62.4781C25.3205 60.4427 26.1132 58.5291 27.5526 57.0898C28.6398 56.0028 29.9974 55.2845 31.4738 54.9983C31.4095 55.3634 31.3762 55.7388 31.3762 56.1092V71.8772C27.9223 71.1538 25.3205 68.0844 25.3205 64.4188ZM44.2177 65.2734C43.9455 65.2734 43.724 65.0519 43.724 64.7797V60.4266L46.751 64.5169C46.9609 64.8431 46.7177 65.2734 46.3324 65.2734H44.2177ZM73.0352 32.4187C67.7865 32.4186 63.3879 28.017 63.3879 22.7719C63.3879 17.5262 67.7868 13.1252 73.0352 13.125C78.3545 13.1252 82.6818 17.4527 82.6818 22.7719C82.6818 28.0911 78.3545 32.4186 73.0352 32.4187Z" fill="#3766CC"/>
<path d="M76.1008 18.897L71.0724 23.9254L69.5818 22.4346C68.9716 21.8248 67.9825 21.8246 67.3719 22.4346C66.7618 23.0448 66.7618 24.034 67.3719 24.6445L69.9674 27.2401C70.2604 27.533 70.6579 27.6977 71.0722 27.6977C71.4866 27.6977 71.884 27.533 72.1771 27.2401L78.3104 21.1068C78.9205 20.4966 78.9205 19.5073 78.3104 18.897C77.7002 18.287 76.7111 18.287 76.1008 18.897Z" fill="#3766CC"/>
<path d="M41.2767 12.1592C41.5878 12.9514 42.5395 13.3267 43.3158 13.0045C44.1025 12.6779 44.4864 11.7531 44.1611 10.9654C43.8362 10.1787 42.9064 9.79232 42.1204 10.1201C41.3354 10.4476 40.9487 11.3726 41.2767 12.1592Z" fill="#3766CC"/>
</svg>
