<svg width="90" height="90" viewBox="0 0 90 90" fill="none" xmlns="http://www.w3.org/2000/svg">
<circle cx="20" cy="70" r="20" fill="white"/>
<path d="M41.1667 14.6665H43.8334C43.8334 14.1498 43.9977 13.952 44.3577 13.52C44.8397 12.9413 45.5001 12.1498 45.5001 10.6665C45.5001 9.18317 44.8397 8.3915 44.3577 7.81284C43.9977 7.38067 43.8334 7.18317 43.8334 6.6665C43.8334 6.14984 43.9976 5.95217 44.3577 5.52034C44.8397 4.9415 45.5001 4.14984 45.5001 2.6665H42.8334C42.8334 3.18317 42.6692 3.38084 42.3091 3.81267C41.8271 4.39117 41.1667 5.18317 41.1667 6.6665C41.1667 8.14984 41.8271 8.9415 42.3091 9.52017C42.6691 9.95184 42.8334 10.1498 42.8334 10.6665C42.8334 11.1832 42.6691 11.381 42.3091 11.813C41.8271 12.3915 41.1667 13.1832 41.1667 14.6665Z" fill="#3766CC"/>
<path d="M68.6667 14.6665H71.3334C71.3334 14.1498 71.4977 13.952 71.8577 13.52C72.3397 12.9413 73.0001 12.1498 73.0001 10.6665C73.0001 9.18317 72.3397 8.3915 71.8577 7.81284C71.4977 7.38067 71.3334 7.18317 71.3334 6.6665C71.3334 6.14984 71.4976 5.95217 71.8577 5.52034C72.3397 4.9415 73.0001 4.14984 73.0001 2.6665H70.3334C70.3334 3.18317 70.1692 3.38084 69.8091 3.81267C69.3271 4.39117 68.6667 5.18317 68.6667 6.6665C68.6667 8.14984 69.3271 8.9415 69.8091 9.52017C70.1691 9.95184 70.3334 10.1498 70.3334 10.6665C70.3334 11.1832 70.1691 11.381 69.8091 11.813C69.3271 12.3915 68.6667 13.1832 68.6667 14.6665Z" fill="#3766CC"/>
<path d="M27.3333 12H29.9999C29.9999 11.4833 30.1643 11.2855 30.5243 10.8535C31.0063 10.2748 31.6666 9.48333 31.6666 8C31.6666 6.51667 31.0063 5.725 30.5243 5.14633C30.1643 4.71417 29.9999 4.51667 29.9999 4C29.9999 3.48333 30.1641 3.28567 30.5243 2.85383C31.0063 2.275 31.6666 1.48333 31.6666 0H28.9999C28.9999 0.516667 28.8358 0.714333 28.4756 1.14617C27.9936 1.72467 27.3333 2.51667 27.3333 4C27.3333 5.48333 27.9936 6.275 28.4756 6.85367C28.8356 7.28533 28.9999 7.48333 28.9999 8C28.9999 8.51667 28.8356 8.7145 28.4756 9.1465C27.9936 9.725 27.3333 10.5167 27.3333 12Z" fill="#3766CC"/>
<path d="M54.8333 12H57.4999C57.4999 11.4833 57.6643 11.2855 58.0243 10.8535C58.5063 10.2748 59.1666 9.48333 59.1666 8C59.1666 6.51667 58.5063 5.725 58.0243 5.14633C57.6643 4.71417 57.4999 4.51667 57.4999 4C57.4999 3.48333 57.6641 3.28567 58.0243 2.85383C58.5063 2.275 59.1666 1.48333 59.1666 0H56.4999C56.4999 0.516667 56.3358 0.714333 55.9756 1.14617C55.4936 1.72467 54.8333 2.51667 54.8333 4C54.8333 5.48333 55.4936 6.275 55.9756 6.85367C56.3356 7.28533 56.4999 7.48333 56.4999 8C56.4999 8.51667 56.3356 8.7145 55.9756 9.1465C55.4936 9.725 54.8333 10.5167 54.8333 12Z" fill="#3766CC"/>
<path d="M87.0001 17.3332H86.0001V14.6665H83.3334V17.3332H80.6667V14.6665H78.0001V17.3332H20.6667V19.9998H87.0001C87.0885 19.9998 87.1733 20.035 87.2358 20.0975C87.2983 20.16 87.3334 20.2448 87.3334 20.3332V71.6665C87.3334 71.7549 87.2983 71.8397 87.2358 71.9022C87.1733 71.9647 87.0885 71.9998 87.0001 71.9998H31.3334V74.6665H76.9591L78.0399 78.9898C78.112 79.2783 78.2785 79.5344 78.5129 79.7174C78.7472 79.9004 79.0361 79.9998 79.3334 79.9998H84.6667C84.9641 79.9998 85.2529 79.9004 85.4873 79.7174C85.7217 79.5344 85.8881 79.2783 85.9603 78.9898L87.0411 74.6665C87.8293 74.6548 88.5814 74.3337 89.1349 73.7725C89.6885 73.2112 89.9993 72.4548 90.0001 71.6665V20.3332C89.9992 19.5378 89.6828 18.7753 89.1204 18.2129C88.558 17.6505 87.7954 17.3341 87.0001 17.3332ZM83.6257 77.3332H80.3744L79.7077 74.6665H84.2924L83.6257 77.3332Z" fill="#3766CC"/>
<path d="M12.6667 71.6668V20.3335C12.6667 20.2451 12.7018 20.1603 12.7643 20.0978C12.8268 20.0353 12.9116 20.0002 13 20.0002H18V17.3335H13C12.2046 17.3344 11.4421 17.6508 10.8797 18.2132C10.3173 18.7756 10.0009 19.5381 10 20.3335V71.6668C10.0008 72.4552 10.3116 73.2115 10.8651 73.7728C11.4187 74.334 12.1708 74.6552 12.959 74.6668L14.0398 78.9905C14.112 79.2789 14.2785 79.5349 14.5129 79.7179C14.7472 79.9008 15.036 80.0002 15.3333 80.0002H20.6667C20.964 80.0002 21.2528 79.9007 21.4872 79.7177C21.7216 79.5347 21.8881 79.2786 21.9602 78.9902L23.041 74.6668H28.6667V72.0002H13C12.9116 72.0002 12.8268 71.965 12.7643 71.9025C12.7018 71.84 12.6667 71.7552 12.6667 71.6668ZM20.2923 74.6668L19.6257 77.3335H16.3743L15.7077 74.6668H20.2923Z" fill="#3766CC"/>
<path d="M58 66.6665H42V69.3332H58V66.6665Z" fill="#3766CC"/>
<path d="M84.6666 23.9998C84.6666 23.6462 84.5261 23.3071 84.2761 23.057C84.026 22.807 83.6869 22.6665 83.3333 22.6665H16.6666C16.313 22.6665 15.9738 22.807 15.7238 23.057C15.4737 23.3071 15.3333 23.6462 15.3333 23.9998V62.6665C15.3333 63.0201 15.4737 63.3593 15.7238 63.6093C15.9738 63.8594 16.313 63.9998 16.6666 63.9998H73.9999V61.3332H17.9999V30.6665H20.6666C21.0201 30.6669 21.359 30.8075 21.609 31.0575C21.8589 31.3074 21.9995 31.6463 21.9999 31.9998V54.6665C21.9999 55.7274 22.4213 56.7448 23.1715 57.4949C23.9216 58.2451 24.9391 58.6665 25.9999 58.6665C27.0608 58.6665 28.0782 58.2451 28.8283 57.4949C29.5785 56.7448 29.9999 55.7274 29.9999 54.6665V31.9998C29.9999 31.6462 30.1404 31.3071 30.3904 31.057C30.6405 30.807 30.9796 30.6665 31.3333 30.6665C31.6869 30.6665 32.026 30.807 32.2761 31.057C32.5261 31.3071 32.6666 31.6462 32.6666 31.9998V54.6665C32.6666 55.7274 33.088 56.7448 33.8382 57.4949C34.5883 58.2451 35.6057 58.6665 36.6666 58.6665C37.7275 58.6665 38.7449 58.2451 39.495 57.4949C40.2452 56.7448 40.6666 55.7274 40.6666 54.6665V31.9998C40.6666 31.6462 40.8071 31.3071 41.0571 31.057C41.3072 30.807 41.6463 30.6665 41.9999 30.6665C42.3535 30.6665 42.6927 30.807 42.9427 31.057C43.1928 31.3071 43.3333 31.6462 43.3333 31.9998V54.6665C43.3333 55.7274 43.7547 56.7448 44.5048 57.4949C45.255 58.2451 46.2724 58.6665 47.3333 58.6665C48.3941 58.6665 49.4115 58.2451 50.1617 57.4949C50.9118 56.7448 51.3333 55.7274 51.3333 54.6665V31.9998C51.3333 31.6462 51.4737 31.3071 51.7238 31.057C51.9738 30.807 52.313 30.6665 52.6666 30.6665C53.0202 30.6665 53.3593 30.807 53.6094 31.057C53.8594 31.3071 53.9999 31.6462 53.9999 31.9998V54.6665C53.9999 55.7274 54.4213 56.7448 55.1715 57.4949C55.9216 58.2451 56.9391 58.6665 57.9999 58.6665C59.0608 58.6665 60.0782 58.2451 60.8283 57.4949C61.5785 56.7448 61.9999 55.7274 61.9999 54.6665V31.9998C61.9999 31.6462 62.1404 31.3071 62.3904 31.057C62.6405 30.807 62.9796 30.6665 63.3333 30.6665C63.6869 30.6665 64.026 30.807 64.2761 31.057C64.5261 31.3071 64.6666 31.6462 64.6666 31.9998V54.6665C64.6666 55.7274 65.088 56.7448 65.8382 57.4949C66.5883 58.2451 67.6057 58.6665 68.6666 58.6665C69.7275 58.6665 70.7449 58.2451 71.495 57.4949C72.2452 56.7448 72.6666 55.7274 72.6666 54.6665V31.9998C72.6666 31.6462 72.8071 31.3071 73.0571 31.057C73.3072 30.807 73.6463 30.6665 73.9999 30.6665C74.3535 30.6665 74.6927 30.807 74.9427 31.057C75.1928 31.3071 75.3333 31.6462 75.3333 31.9998V53.9998C75.3347 55.2371 75.8268 56.4232 76.7016 57.2981C77.5765 58.173 78.7627 58.6651 79.9999 58.6665H81.9999V61.3332H76.6666V63.9998H83.3333C83.6869 63.9998 84.026 63.8594 84.2761 63.6093C84.5261 63.3593 84.6666 63.0201 84.6666 62.6665V23.9998ZM81.9999 55.9998H79.9999C79.4697 55.9993 78.9613 55.7884 78.5863 55.4134C78.2114 55.0385 78.0005 54.5301 77.9999 53.9998V31.9998C77.9999 30.939 77.5785 29.9216 76.8283 29.1714C76.0782 28.4213 75.0608 27.9998 73.9999 27.9998C72.9391 27.9998 71.9216 28.4213 71.1715 29.1714C70.4213 29.9216 69.9999 30.939 69.9999 31.9998V54.6665C69.9999 55.0201 69.8594 55.3593 69.6094 55.6093C69.3593 55.8594 69.0202 55.9998 68.6666 55.9998C68.313 55.9998 67.9738 55.8594 67.7238 55.6093C67.4737 55.3593 67.3333 55.0201 67.3333 54.6665V31.9998C67.3333 30.939 66.9118 29.9216 66.1617 29.1714C65.4115 28.4213 64.3941 27.9998 63.3333 27.9998C62.2724 27.9998 61.255 28.4213 60.5048 29.1714C59.7547 29.9216 59.3333 30.939 59.3333 31.9998V54.6665C59.3333 55.0201 59.1928 55.3593 58.9427 55.6093C58.6927 55.8594 58.3535 55.9998 57.9999 55.9998C57.6463 55.9998 57.3072 55.8594 57.0571 55.6093C56.8071 55.3593 56.6666 55.0201 56.6666 54.6665V31.9998C56.6666 30.939 56.2452 29.9216 55.495 29.1714C54.7449 28.4213 53.7275 27.9998 52.6666 27.9998C51.6057 27.9998 50.5883 28.4213 49.8382 29.1714C49.088 29.9216 48.6666 30.939 48.6666 31.9998V54.6665C48.6666 55.0201 48.5261 55.3593 48.2761 55.6093C48.026 55.8594 47.6869 55.9998 47.3333 55.9998C46.9796 55.9998 46.6405 55.8594 46.3904 55.6093C46.1404 55.3593 45.9999 55.0201 45.9999 54.6665V31.9998C45.9999 30.939 45.5785 29.9216 44.8283 29.1714C44.0782 28.4213 43.0608 27.9998 41.9999 27.9998C40.9391 27.9998 39.9216 28.4213 39.1715 29.1714C38.4213 29.9216 37.9999 30.939 37.9999 31.9998V54.6665C37.9999 55.0201 37.8594 55.3593 37.6094 55.6093C37.3593 55.8594 37.0202 55.9998 36.6666 55.9998C36.313 55.9998 35.9738 55.8594 35.7238 55.6093C35.4737 55.3593 35.3333 55.0201 35.3333 54.6665V31.9998C35.3333 30.939 34.9118 29.9216 34.1617 29.1714C33.4115 28.4213 32.3941 27.9998 31.3333 27.9998C30.2724 27.9998 29.255 28.4213 28.5048 29.1714C27.7547 29.9216 27.3333 30.939 27.3333 31.9998V54.6665C27.3333 55.0201 27.1928 55.3593 26.9427 55.6093C26.6927 55.8594 26.3535 55.9998 25.9999 55.9998C25.6463 55.9998 25.3072 55.8594 25.0571 55.6093C24.8071 55.3593 24.6666 55.0201 24.6666 54.6665V31.9998C24.6654 30.9393 24.2436 29.9226 23.4937 29.1727C22.7438 28.4228 21.7271 28.001 20.6666 27.9998H17.9999V25.3332H81.9999V55.9998Z" fill="#3766CC"/>
<path d="M84.6667 66.6665H82V69.3332H84.6667V66.6665Z" fill="#3766CC"/>
<path d="M79.3334 66.6665H76.6667V69.3332H79.3334V66.6665Z" fill="#3766CC"/>
<path d="M17.9999 66.6665H15.3333V69.3332H17.9999V66.6665Z" fill="#3766CC"/>
<path d="M23.3334 66.6665H20.6667V69.3332H23.3334V66.6665Z" fill="#3766CC"/>
</svg>
