<svg width="90" height="90" viewBox="0 0 90 90" fill="none" xmlns="http://www.w3.org/2000/svg">
<circle cx="70" cy="70" r="20" fill="white"/>
<path d="M37.2413 24.8276C34.1943 24.8276 31.7241 27.2978 31.7241 30.3449C31.7241 33.3919 34.1943 35.8621 37.2413 35.8621C40.2884 35.8621 42.7586 33.3919 42.7586 30.3449C42.7586 27.2978 40.2884 24.8276 37.2413 24.8276ZM37.2413 33.1035C35.7177 33.1035 34.4827 31.8685 34.4827 30.3449C34.4827 28.8212 35.7177 27.5863 37.2413 27.5863C38.765 27.5863 40 28.8212 40 30.3449C40 31.8685 38.765 33.1035 37.2413 33.1035Z" fill="#3766CC"/>
<path d="M53.7929 41.3792C50.7458 41.3792 48.2756 43.8493 48.2756 46.8964C48.2756 49.9435 50.7458 52.4136 53.7929 52.4136C56.8399 52.4136 59.3101 49.9435 59.3101 46.8964C59.3101 43.8493 56.8399 41.3792 53.7929 41.3792ZM53.7929 49.655C52.2692 49.655 51.0342 48.42 51.0342 46.8964C51.0342 45.3728 52.2692 44.1378 53.7929 44.1378C55.3165 44.1378 56.5515 45.3728 56.5515 46.8964C56.5515 48.42 55.3165 49.655 53.7929 49.655Z" fill="#3766CC"/>
<path d="M55.5753 26.6108L33.5068 48.6792L35.4575 50.6298L57.5259 28.5614L55.5753 26.6108Z" fill="#3766CC"/>
<path d="M78.1074 22.8276L68.6895 16.5518H68.9654V6.89663C68.9654 6.1349 68.3478 5.51732 67.5861 5.51732H60.6895C59.9278 5.51732 59.3102 6.1349 59.3102 6.89663V10.2966L46.2827 1.60698C45.8192 1.29767 45.2151 1.29767 44.7516 1.60698L12.9269 22.8276C10.9745 24.1292 10.4467 26.7669 11.7483 28.7193C13.0498 30.6717 15.6876 31.1995 17.64 29.898L22.0689 26.9462V53.7931H19.3103C19.3103 53.0314 18.6927 52.4138 17.931 52.4138H6.89654C6.13481 52.4138 5.51723 53.0314 5.51723 53.7931H0V56.5517H5.51723V70.3448H0V73.1034H5.51723C5.51723 73.8651 6.13481 74.4827 6.89654 74.4827H17.931C18.6927 74.4827 19.3103 73.8651 19.3103 73.1034V72.5779L29.6082 76.8537C35.222 79.1465 41.498 79.2161 47.1613 77.0482L68.4688 68.9227C69.731 68.443 70.7469 67.4749 71.2867 66.2372C71.8441 64.982 71.8729 63.5553 71.3667 62.2786C70.9157 61.137 70.0612 60.201 68.9654 59.6482V26.9462L73.3943 29.898C75.3467 31.1995 77.9845 30.6717 79.286 28.7193C80.5876 26.7669 80.0598 24.129 78.1074 22.8276ZM16.5517 71.7241H8.27584V55.1724H16.5517V71.7241ZM62.0688 8.27593H66.2067V14.8966L62.0688 12.138V8.27593ZM68.7571 65.1255C68.5135 65.6886 68.053 66.1298 67.4799 66.3489L46.1723 74.473C41.1656 76.391 35.6166 76.3313 30.6523 74.3061L19.3103 69.5903V56.5517H22.8068C27.3803 56.557 31.8903 57.6217 35.9834 59.662C37.3349 60.3367 38.8246 60.6884 40.3351 60.6896H51.0344C52.177 60.697 53.0973 61.6293 53.0899 62.7718C53.0837 63.7289 52.4218 64.557 51.4895 64.7737C51.3089 64.7903 51.1323 64.8275 50.9489 64.8275H34.4827V67.5862H50.9489C50.9778 67.5862 51.0054 67.5862 51.0344 67.5862C51.062 67.5862 51.0882 67.5779 51.1171 67.5779C52.2118 67.5603 53.2928 67.3311 54.3006 66.9034L65.833 62.0082C66.3823 61.7738 67.0036 61.7738 67.553 62.0082C68.1243 62.2494 68.5726 62.7131 68.7943 63.2924C69.0286 63.8836 69.0152 64.5443 68.7571 65.1255ZM51.0344 57.931H40.3351C39.2527 57.9294 38.1853 57.6772 37.2165 57.1944C33.3504 55.2686 29.138 54.1355 24.8275 53.862V25.1035L45.5171 11.3104L66.2067 25.1035V59.1172C65.7078 59.1593 65.218 59.2769 64.7543 59.4662L55.8109 63.2634C55.8369 63.0962 55.854 62.9277 55.8619 62.7586C55.8619 60.0924 53.7006 57.931 51.0344 57.931ZM75.7504 27.8554C75.4562 27.8554 75.1688 27.7685 74.924 27.6055L46.2827 8.50766C45.8192 8.19835 45.2151 8.19835 44.7516 8.50766L16.1103 27.6028C15.4248 28.0592 14.4993 27.8733 14.0429 27.1878C13.88 26.943 13.7931 26.6555 13.7931 26.3614C13.7922 25.8626 14.0413 25.3964 14.4565 25.12L45.5171 4.41387L76.5778 25.1228C76.9929 25.3993 77.2421 25.8654 77.2412 26.3642C77.2414 27.1876 76.5738 27.8552 75.7504 27.8554Z" fill="#3766CC"/>
<path d="M13.7933 66.2068H11.0347V68.9654H13.7933V66.2068Z" fill="#3766CC"/>
</svg>
