<svg width="30" height="30" viewBox="0 0 30 30" fill="none" xmlns="http://www.w3.org/2000/svg">
<rect x="0.5" y="0.5" width="29" height="29" rx="2.5" stroke="white" stroke-opacity="0.5"/>
<path fill-rule="evenodd" clip-rule="evenodd" d="M15.0007 7.5C12.9638 7.5 12.7082 7.50891 11.9082 7.54531C11.1097 7.58188 10.5647 7.70828 10.0878 7.89375C9.59455 8.08531 9.17611 8.34156 8.75923 8.75859C8.34204 9.17547 8.08579 9.59391 7.8936 10.087C7.70766 10.5641 7.58109 11.1092 7.54516 11.9073C7.50938 12.7073 7.5 12.9631 7.5 15C7.5 17.0369 7.50906 17.2917 7.54531 18.0917C7.58203 18.8902 7.70844 19.4352 7.89375 19.912C8.08547 20.4053 8.34173 20.8238 8.75876 21.2406C9.17549 21.6578 9.59393 21.9147 10.0869 22.1063C10.5641 22.2917 11.1093 22.4181 11.9075 22.4547C12.7076 22.4911 12.963 22.5 14.9998 22.5C17.0368 22.5 17.2917 22.4911 18.0917 22.4547C18.8901 22.4181 19.4357 22.2917 19.9129 22.1063C20.4061 21.9147 20.8239 21.6578 21.2406 21.2406C21.6578 20.8238 21.9141 20.4053 22.1062 19.9122C22.2906 19.4352 22.4172 18.89 22.4547 18.0919C22.4906 17.2919 22.5 17.0369 22.5 15C22.5 12.9631 22.4906 12.7075 22.4547 11.9075C22.4172 11.1091 22.2906 10.5641 22.1062 10.0872C21.9141 9.59391 21.6578 9.17547 21.2406 8.75859C20.8234 8.34141 20.4062 8.08516 19.9125 7.89375C19.4343 7.70828 18.889 7.58188 18.0906 7.54531C17.2906 7.50891 17.0359 7.5 14.9984 7.5H15.0007ZM14.3274 8.8515C14.527 8.85118 14.7499 8.8515 15.0002 8.8515C17.0027 8.8515 17.24 8.85868 18.0308 8.89462C18.7621 8.92806 19.159 9.05025 19.4233 9.1529C19.7734 9.28884 20.0229 9.45134 20.2852 9.71384C20.5477 9.97634 20.7102 10.2263 20.8465 10.5763C20.9491 10.8404 21.0715 11.2373 21.1048 11.9685C21.1407 12.7592 21.1485 12.9967 21.1485 14.9982C21.1485 16.9998 21.1407 17.2373 21.1048 18.0279C21.0713 18.7592 20.9491 19.156 20.8465 19.4201C20.7105 19.7701 20.5477 20.0193 20.2852 20.2817C20.0227 20.5442 19.7735 20.7067 19.4233 20.8426C19.1593 20.9457 18.7621 21.0676 18.0308 21.101C17.2402 21.137 17.0027 21.1448 15.0002 21.1448C12.9975 21.1448 12.7602 21.137 11.9695 21.101C11.2383 21.0673 10.8414 20.9451 10.5768 20.8424C10.2268 20.7065 9.97684 20.544 9.71434 20.2815C9.45184 20.019 9.28933 19.7696 9.15308 19.4195C9.05042 19.1554 8.92808 18.7585 8.8948 18.0273C8.85886 17.2367 8.85167 16.9992 8.85167 14.9963C8.85167 12.9935 8.85886 12.7573 8.8948 11.9667C8.92824 11.2354 9.05042 10.8385 9.15308 10.5742C9.28902 10.2242 9.45184 9.97415 9.71434 9.71165C9.97684 9.44915 10.2268 9.28665 10.5768 9.1504C10.8412 9.04728 11.2383 8.9254 11.9695 8.89181C12.6614 8.86056 12.9295 8.85118 14.3274 8.84962V8.8515ZM19.0038 10.0967C18.5069 10.0967 18.1038 10.4993 18.1038 10.9964C18.1038 11.4932 18.5069 11.8964 19.0038 11.8964C19.5007 11.8964 19.9038 11.4932 19.9038 10.9964C19.9038 10.4995 19.5007 10.0964 19.0038 10.0964V10.0967ZM15.0012 11.1483C12.8741 11.1483 11.1496 12.8728 11.1496 14.9999C11.1496 17.1269 12.8741 18.8506 15.0012 18.8506C17.1282 18.8506 18.8522 17.1269 18.8522 14.9999C18.8522 12.8728 17.1281 11.1483 15.001 11.1483H15.0012ZM15.0003 12.4999C16.381 12.4999 17.5004 13.6192 17.5004 14.9999C17.5004 16.3806 16.381 17.4999 15.0003 17.4999C13.6195 17.4999 12.5003 16.3806 12.5003 14.9999C12.5003 13.6192 13.6195 12.4999 15.0003 12.4999Z" fill="white" fill-opacity="0.5"/>
</svg>
