<svg width="90" height="90" viewBox="0 0 90 90" fill="none" xmlns="http://www.w3.org/2000/svg">
<circle cx="70" cy="20" r="20" fill="white"/>
<g clip-path="url(#clip0_1408_9)">
<path d="M78.5563 23.2723C77.7589 23.2723 77.1125 23.9187 77.1125 24.7161V87.1125H65.5681V83.8614H72.4777C73.275 83.8614 73.9214 83.215 73.9214 82.4176V56.8895C73.9214 56.0921 73.275 55.4457 72.4777 55.4457H66.3083V52.2548H72.4777C73.275 52.2548 73.9214 51.6084 73.9214 50.8111V17.4623C73.9214 16.665 73.275 16.0186 72.4777 16.0186H43.0392C42.2419 16.0186 41.5955 16.665 41.5955 17.4623V38.3761H38.4044V17.4623C38.4044 16.665 37.758 16.0186 36.9606 16.0186H7.52236C6.72502 16.0186 6.07861 16.665 6.07861 17.4623V44.6254V50.8109C6.07861 51.6082 6.72502 52.2546 7.52236 52.2546H12.743C13.5403 52.2546 14.1867 51.6082 14.1867 50.8109C14.1867 50.0135 13.5403 49.3671 12.743 49.3671H8.96611V46.0692H15.0927C20.2003 46.0692 24.3556 41.9139 24.3556 36.8064V18.9061H35.5169V39.8198C35.5169 40.6171 36.1633 41.2636 36.9606 41.2636H43.0392C43.8366 41.2636 44.483 40.6171 44.483 39.8198V18.9061H71.0338V22.6204H67.2211C66.4238 22.6204 65.7774 23.2668 65.7774 24.0642V43.8918C65.7774 44.6892 66.4238 45.3356 67.2211 45.3356H71.0338V49.3671H64.8644C64.0671 49.3671 63.4206 50.0135 63.4206 50.8109V56.8893C63.4206 57.6867 64.0671 58.3331 64.8644 58.3331H71.0338V80.9737H64.1241C63.3267 80.9737 62.6803 81.6201 62.6803 82.4175V88.5562C62.6803 89.3535 63.3267 90 64.1241 90H78.5558C79.3531 90 79.9995 89.3535 79.9995 88.5562V24.7161C80 23.9187 79.3536 23.2723 78.5563 23.2723ZM21.4683 36.8064H21.4681C21.4681 40.3217 18.6081 43.1817 15.0927 43.1817H8.96611V18.9061H10.0196V19.8393C10.0196 20.6367 10.666 21.2831 11.4633 21.2831C12.2606 21.2831 12.9071 20.6367 12.9071 19.8393V18.9061H13.7733V22.7268C13.7733 23.5242 14.4197 24.1706 15.2171 24.1706C16.0144 24.1706 16.6608 23.5242 16.6608 22.7268V18.9061H17.5271V19.8393C17.5271 20.6367 18.1735 21.2831 18.9708 21.2831C19.7681 21.2831 20.4146 20.6367 20.4146 19.8393V18.9061H21.4681V36.8064H21.4683ZM71.0339 42.4482H68.665V25.5079H71.0339V42.4482Z" fill="#3766CC"/>
<path d="M13.7002 18H16.7002V25H13.7002V18Z" fill="#3766CC"/>
<path d="M10 18H13V22H10V18Z" fill="#3766CC"/>
<path d="M17.3999 18H20.3999V22H17.3999V18Z" fill="#3766CC"/>
<path d="M78.5563 10.001H1.44375C0.646406 10.001 0 10.6474 0 11.4447V88.5571C0 89.3544 0.646406 90.0008 1.44375 90.0008H52.4952C53.2925 90.0008 53.9389 89.3544 53.9389 88.5571V82.4183C53.9389 81.621 53.2925 80.9746 52.4952 80.9746H44.483V66.9188C44.483 66.1214 43.8366 65.475 43.0392 65.475H36.9606C36.1633 65.475 35.5169 66.1214 35.5169 66.9188V80.9746H8.96609V77.6665H13.3563C14.713 77.6665 15.9119 76.9827 16.6302 75.9425C17.8858 76.5932 19.3286 76.9416 20.8442 76.9416C25.3477 76.9416 29.0116 73.7936 29.0116 69.9243C29.0116 68.7754 28.6828 67.636 28.0609 66.6293C27.642 65.9511 26.7522 65.7405 26.0739 66.1597C25.3955 66.5788 25.1853 67.4683 25.6044 68.1468C25.9492 68.705 26.1239 69.303 26.1239 69.9243C26.1239 72.2013 23.7553 74.0539 20.8442 74.0539C19.5452 74.0539 18.2987 73.6736 17.3337 72.9979V66.8505C18.2987 66.1749 19.5452 65.7944 20.8442 65.7944C21.6848 65.7944 22.4886 65.9461 23.2331 66.245C23.9727 66.5422 24.8137 66.183 25.1108 65.443C25.4078 64.703 25.0487 63.8624 24.3088 63.5654C23.2205 63.1283 22.055 62.9068 20.8439 62.9068C19.3281 62.9068 17.885 63.2552 16.6289 63.9063C15.9106 62.8669 14.7122 62.1836 13.3558 62.1836H8.96609V58.3336H48.8142C49.6116 58.3336 50.258 57.6872 50.258 56.8899V50.8114C50.258 50.0141 49.6116 49.3677 48.8142 49.3677H17.363C16.5656 49.3677 15.9192 50.0141 15.9192 50.8114C15.9192 51.6088 16.5656 52.2552 17.363 52.2552H47.3706V55.4461H7.52234C6.725 55.4461 6.07859 56.0925 6.07859 56.8899V82.4182C6.07859 83.2155 6.725 83.8619 7.52234 83.8619H36.9608C37.7581 83.8619 38.4045 83.2155 38.4045 82.4182V68.3624H41.5956V82.4182C41.5956 83.2155 42.242 83.8619 43.0394 83.8619H51.0516V87.113H2.8875V12.8885H77.1125V19.5835C77.1125 20.3808 77.7589 21.0272 78.5563 21.0272C79.3536 21.0272 80 20.3808 80 19.5835V11.4447C80 10.6474 79.3536 10.001 78.5563 10.001ZM8.96609 65.0718H13.3563V65.0716C13.9575 65.0716 14.4464 65.5605 14.4464 66.1618V73.6889C14.4464 74.2899 13.9575 74.7791 13.3563 74.7791H8.96609V65.0718Z" fill="#3766CC"/>
<path d="M60.3499 22.6201H49.6913C48.894 22.6201 48.2476 23.2665 48.2476 24.0639V43.8915C48.2476 44.6889 48.894 45.3353 49.6913 45.3353H60.3499C61.1472 45.3353 61.7937 44.6889 61.7937 43.8915V39.1753V28.7801V24.0639C61.7937 23.2665 61.1472 22.6201 60.3499 22.6201ZM58.9062 37.7315H56.1522V30.2239H58.9062V37.7315ZM58.9062 27.3364H54.7085C53.9112 27.3364 53.2647 27.9828 53.2647 28.7801V39.1753C53.2647 39.9726 53.9112 40.619 54.7085 40.619H58.9062V42.4478H51.1351V25.5076H58.9062V27.3364Z" fill="#3766CC"/>
<path d="M19 68.48H21.6667V71.1466H19V68.48Z" fill="#3766CC"/>
<path d="M13.9998 36H16.6664V38.6667H13.9998V36Z" fill="#3766CC"/>
</g>
<defs>
<clipPath id="clip0_1408_9">
<rect width="80" height="80" fill="white" transform="translate(0 10)"/>
</clipPath>
</defs>
</svg>
