<svg width="90" height="90" viewBox="0 0 90 90" fill="none" xmlns="http://www.w3.org/2000/svg">
<circle cx="70" cy="70" r="20" fill="white"/>
<path d="M73.3332 62.6669H69.3332V62.409C69.33 61.0569 68.8146 59.7562 67.8909 58.7689C66.9671 57.7815 65.7036 57.1807 64.3547 57.0875L53.1364 56.3397C51.3612 56.2212 49.5812 56.4837 47.9158 57.1095C46.2503 57.7353 44.7379 58.7099 43.4799 59.968C42.006 61.4375 40.8251 63.1739 39.9999 65.0847C39.1748 63.1739 37.9938 61.4376 36.5199 59.968C35.262 58.7098 33.7496 57.7352 32.0842 57.1094C30.4187 56.4836 28.6387 56.2213 26.8635 56.3399L15.6453 57.0877C14.2964 57.1808 13.0329 57.7816 12.1091 58.7689C11.1853 59.7563 10.6699 61.0569 10.6666 62.409V62.6669H6.66666C4.89916 62.6689 3.20462 63.3719 1.95481 64.6217C0.705 65.8715 0.00198509 67.566 1.05335e-10 69.3335C-4.15244e-06 69.6641 0.122769 69.9828 0.344501 70.228C0.566232 70.4731 0.871115 70.6271 1.2 70.6602L26.6666 73.2069V80.0002H29.3333V72.0002C29.3333 71.6697 29.2105 71.3509 28.9888 71.1058C28.7671 70.8606 28.4622 70.7066 28.1333 70.6735L2.847 68.1449C3.10151 67.3307 3.60921 66.619 4.2962 66.1134C4.9832 65.6077 5.81364 65.3345 6.66666 65.3335H22.6666V62.6669H13.3333V62.409C13.335 61.733 13.5927 61.0827 14.0545 60.589C14.5164 60.0953 15.1482 59.7949 15.8226 59.7484L27.041 59.0002C28.4369 58.9068 29.8367 59.1131 31.1464 59.6052C32.4561 60.0973 33.6454 60.8638 34.6344 61.8534C35.9169 63.1288 36.9335 64.6459 37.6257 66.3169C38.3178 67.9879 38.6716 69.7795 38.6666 71.5882V80.0002H41.3333V71.5882C41.3283 69.7796 41.6822 67.9879 42.3743 66.317C43.0664 64.646 44.0831 63.1289 45.3654 61.8535C46.3545 60.864 47.5438 60.0974 48.8535 59.6053C50.1631 59.1132 51.5629 58.9069 52.9589 59.0002L64.1774 59.748C64.8519 59.7947 65.4837 60.0951 65.9455 60.5888C66.4074 61.0826 66.665 61.733 66.6666 62.409V62.6669H57.3332V65.3335H73.3332C74.1862 65.3345 75.0167 65.6077 75.7037 66.1134C76.3907 66.619 76.8984 67.3307 77.1529 68.1449L51.8666 70.6735C51.5377 70.7066 51.2328 70.8606 51.0111 71.1058C50.7894 71.3509 50.6666 71.6697 50.6666 72.0002V80.0002H53.3332V73.2069L78.7999 70.6602C79.1288 70.6271 79.4336 70.4731 79.6554 70.228C79.8771 69.9828 79.9999 69.6641 79.9999 69.3335C79.9979 67.566 79.2949 65.8715 78.0451 64.6217C76.7952 63.3719 75.1007 62.6689 73.3332 62.6669Z" fill="#3766CC"/>
<path d="M29.3334 7.75988L53.3334 2.95989V14.6667H56V1.33339C56 1.13612 55.9563 0.941298 55.8719 0.762982C55.7875 0.584667 55.6646 0.427299 55.512 0.302226C55.3595 0.177152 55.1811 0.0874907 54.9897 0.0397059C54.7983 -0.00807884 54.5986 -0.0127958 54.4052 0.0258948L27.7386 5.35922C27.4363 5.41967 27.1644 5.58299 26.9689 5.82137C26.7735 6.05975 26.6667 6.35848 26.6667 6.66672V17.3334H29.3334V7.75988Z" fill="#3766CC"/>
<path d="M37.3333 25.3335H39.9999V28.0002H37.3333V25.3335Z" fill="#3766CC"/>
<path d="M40 17.3335H42.6667V20.0002H40V17.3335Z" fill="#3766CC"/>
<path d="M33.3333 10.6665H35.9999V13.3332H33.3333V10.6665Z" fill="#3766CC"/>
<path d="M46.6667 10.6665H49.3334V13.3332H46.6667V10.6665Z" fill="#3766CC"/>
<path d="M40 36H42.6667V38.6667H40V36Z" fill="#3766CC"/>
<path d="M37.3333 46.6665H39.9999V49.3332H37.3333V46.6665Z" fill="#3766CC"/>
<path d="M52 34.6665H54.6667V37.3332H52V34.6665Z" fill="#3766CC"/>
<path d="M54.6667 42.6665H57.3334V45.3332H54.6667V42.6665Z" fill="#3766CC"/>
<path d="M13.3334 50.6666H24.0001V47.9999H13.3334V45.3333H26.6667V42.6666H13.3334V40H24.0001V37.3333H13.3334V34.6666H21.3334V32H13.3334V29.3333H25.3334V26.6666H13.3334V20.2733L27.0606 22.8471C28.4485 23.108 29.7017 23.8454 30.6036 24.9321C31.5055 26.0188 31.9994 27.3864 32 28.7986V54.6666H34.6667V28.7986C34.6658 26.7645 33.9543 24.7946 32.6553 23.2293C31.3562 21.6641 29.5512 20.6018 27.5521 20.226L22.6667 19.31V14.6667H20.0001V18.81L17.3334 18.31V12H14.6667V17.81L12.2457 17.3562C12.0532 17.3201 11.855 17.3268 11.6654 17.376C11.4758 17.4252 11.2993 17.5155 11.1485 17.6407C10.9978 17.7658 10.8765 17.9226 10.7932 18.0999C10.7099 18.2772 10.6667 18.4707 10.6667 18.6667V54.6666H13.3334V50.6666Z" fill="#3766CC"/>
<path d="M51.9999 18.6668V22.6668H49.3332C48.9796 22.6668 48.6405 22.8073 48.3904 23.0573C48.1404 23.3074 47.9999 23.6465 47.9999 24.0002V28.0001H46.6666C46.313 28.0001 45.9738 28.1406 45.7238 28.3907C45.4737 28.6407 45.3333 28.9799 45.3333 29.3335V54.6668H47.9999V30.6668H66.6666V38.6668H61.3332V41.3335H66.6666V44.0001H61.3332V46.6668H66.6666V49.3334H55.9999V52.0001H66.6666V54.6668H69.3332V29.3335C69.3332 28.9799 69.1927 28.6407 68.9427 28.3907C68.6926 28.1406 68.3535 28.0001 67.9999 28.0001H66.6666V24.0002C66.6666 23.6465 66.5261 23.3074 66.276 23.0573C66.026 22.8073 65.6868 22.6668 65.3332 22.6668H62.6666V18.6668C62.6666 18.3132 62.5261 17.9741 62.276 17.724C62.026 17.474 61.6868 17.3335 61.3332 17.3335H53.3332C52.9796 17.3335 52.6405 17.474 52.3904 17.724C52.1404 17.9741 51.9999 18.3132 51.9999 18.6668ZM63.9999 28.0001H50.6666V25.3335H63.9999V28.0001ZM59.9999 20.0002V22.6668H54.6666V20.0002H59.9999Z" fill="#3766CC"/>
</svg>
