<svg width="90" height="90" viewBox="0 0 90 90" fill="none" xmlns="http://www.w3.org/2000/svg">
<circle cx="20" cy="20" r="20" fill="white"/>
<g clip-path="url(#clip0_1408_12)">
<path d="M16.7777 43.3345H18.068V58.0009C18.0698 59.473 19.2624 60.6656 20.7345 60.6674H22.6217L14.658 86.5486C14.409 87.3579 14.5592 88.2368 15.0621 88.9173C15.565 89.5978 16.3609 90.0001 17.2074 90.0001H82.9269C83.7729 90.0001 84.5694 89.5984 85.0723 88.9179C85.5746 88.2374 85.7247 87.3585 85.4763 86.5492L77.5127 60.6674H79.3992C80.8713 60.6656 82.0645 59.473 82.0658 58.0009V43.3345H83.3566C84.407 43.337 85.3622 42.7248 85.7992 41.769C86.2691 40.7803 86.1159 39.6078 85.4086 38.7729L78.7877 30.968C77.9289 30.0122 76.5239 29.776 75.3997 30.3979V29.5617C75.404 28.263 74.7887 27.0398 73.7432 26.2696L52.4225 10.7854C51.0309 9.74115 49.1181 9.7381 47.7235 10.7769L26.3752 26.2818C25.3377 27.052 24.7285 28.2697 24.7347 29.5617V30.3991C23.6116 29.7766 22.2085 30.0109 21.3491 30.9643L14.7179 38.7821C14.016 39.6164 13.8664 40.784 14.3352 41.7684C14.7716 42.7242 15.7267 43.3364 16.7777 43.3345ZM25.4121 60.6674H26.0676C27.5397 60.6656 28.7323 59.473 28.7342 58.0009V55.3343H31.0022C31.0016 56.7485 31.5631 58.1052 32.5634 59.1056C33.5631 60.1053 34.9199 60.6674 36.334 60.6674H66.1354C67.2401 60.6674 68.1355 61.5628 68.1355 62.6675C68.1355 63.7722 67.2401 64.6675 66.1354 64.6675H33.0413C30.0958 64.6675 27.7082 67.0552 27.7082 70.0006C27.7082 72.9461 30.0958 75.3337 33.0413 75.3337H68.3711C70.2119 75.3337 71.7041 76.826 71.7041 78.6668C71.7041 80.5075 70.2119 82.0004 68.3711 82.0004H29.1339C26.6365 81.99 24.4692 83.7234 23.9315 86.1629L23.6678 87.3335H17.2074L25.4121 60.6674ZM82.9269 87.3335H26.4009L26.5327 86.7482C26.8019 85.5281 27.8852 84.6615 29.1339 84.667H68.3711C71.6846 84.667 74.3707 81.9803 74.3707 78.6668C74.3707 75.3533 71.6846 72.6672 68.3711 72.6672H33.0413C31.5686 72.6672 30.3747 71.4734 30.3747 70.0006C30.3747 68.5279 31.5686 67.3341 33.0413 67.3341H66.1354C68.7129 67.3341 70.802 65.2449 70.802 62.6675C70.802 60.09 68.7129 58.0009 66.1354 58.0009H36.334C34.8613 58.0009 33.6675 56.807 33.6675 55.3343H71.3996V58.0009C71.4014 59.473 72.594 60.6656 74.0661 60.6674H74.7216L82.9269 87.3335ZM55.4003 52.6678H44.7341V38.0014C44.7353 36.5293 45.9285 35.3367 47.4006 35.3349H52.7337C54.2058 35.3367 55.3984 36.5293 55.4003 38.0014V52.6678ZM76.751 32.6891L83.3743 40.4983L84.3911 39.6353L83.3566 40.668H80.7328C79.9961 40.668 79.3992 41.2649 79.3992 42.0016V58.0009H74.0661V42.0016C74.0661 41.2649 73.4692 40.668 72.7331 40.668H72.5934L70.1038 40.6704L70.091 40.4983L76.751 32.6891ZM27.9584 28.4265L49.3024 12.9259C49.7583 12.5792 50.3907 12.5823 50.8429 12.9344L72.1594 28.4149C72.5226 28.6841 72.7356 29.1101 72.7331 29.5617V33.2604L68.0494 38.7821C67.3476 39.6164 67.198 40.784 67.6668 41.7684C68.1038 42.7242 69.0583 43.3364 70.1093 43.3345H71.3996V52.6678H58.0668V38.0014C58.0638 35.0572 55.678 32.6714 52.7337 32.6683H47.4006C44.4564 32.6714 42.0706 35.0572 42.0669 38.0014V52.6678H28.7342V43.3345H30.0244C31.0754 43.337 32.0306 42.7248 32.4676 41.769C32.9369 40.7803 32.7843 39.6078 32.077 38.7729L27.4012 33.261V29.5617C27.3969 29.1168 27.6038 28.6957 27.9584 28.4265ZM23.4194 32.6891L30.0427 40.4983L31.0595 39.6353L30.0244 40.668H27.4012C26.6645 40.668 26.0676 41.2649 26.0676 42.0016V58.0009H20.7345V42.0016C20.7345 41.2649 20.1376 40.668 19.4009 40.668H19.2618L16.7722 40.6704L16.7588 40.4983L23.4194 32.6891Z" fill="#3766CC"/>
<path d="M32.7354 32.6683C33.029 32.6683 33.314 32.5713 33.5465 32.3924L46.9861 22.0595C47.5702 21.6103 47.6794 20.7735 47.2308 20.1894C46.7822 19.6053 45.9449 19.4961 45.3614 19.9447L31.9212 30.2776C31.4684 30.6255 31.2877 31.2236 31.4714 31.7644C31.6557 32.3058 32.1641 32.6689 32.7354 32.6683Z" fill="#3766CC"/>
<path d="M51.4003 18.0021C51.4003 18.7382 50.8033 19.3357 50.0673 19.3357C49.3306 19.3357 48.7336 18.7382 48.7336 18.0021C48.7336 17.266 49.3306 16.6685 50.0673 16.6685C50.8033 16.6685 51.4003 17.266 51.4003 18.0021Z" fill="#3766CC"/>
</g>
<defs>
<clipPath id="clip0_1408_12">
<rect width="80" height="80" fill="white" transform="translate(10 10)"/>
</clipPath>
</defs>
</svg>
