<svg width="90" height="90" viewBox="0 0 90 90" fill="none" xmlns="http://www.w3.org/2000/svg">
<circle cx="20" cy="70" r="20" fill="white"/>
<g clip-path="url(#clip0_1408_6)">
<path d="M75.3333 77.3335V26.6669C75.3333 26.3459 75.2175 26.0358 75.0072 25.7933C74.7969 25.5509 74.5062 25.3924 74.1884 25.347L55.5218 22.6804C55.3327 22.6534 55.14 22.6673 54.9568 22.7213C54.7735 22.7752 54.604 22.8679 54.4597 22.993C54.3154 23.1182 54.1997 23.2729 54.1204 23.4467C54.041 23.6204 54 23.8092 54 24.0002V33.3335H56.6666V25.5375L72.6666 27.8232V30.6669H63.3333V33.3335H72.6666V36.0002H68.6666V38.6669H72.6666V41.3335H68.6666V44.0002H72.6666V46.6669H68.6666V49.3335H72.6666V52.0002H68.6666V54.6669H72.6666V57.3335H68.6666V60.0002H72.6666V62.6669H68.6666V65.3335H72.6666V68.0002H68.6666V70.6668H72.6666V77.3335H64.6666V37.3335C64.6666 36.9799 64.5261 36.6408 64.2761 36.3907C64.026 36.1407 63.6869 36.0002 63.3333 36.0002H44.6666C44.313 36.0002 43.9739 36.1407 43.7238 36.3907C43.4738 36.6408 43.3333 36.9799 43.3333 37.3335V61.3335H46V38.6669H62V77.3335H51.3333V65.3335C51.3333 64.9799 51.1928 64.6408 50.9428 64.3907C50.6927 64.1407 50.3536 64.0002 50 64.0002H39.3333C38.9797 64.0002 38.6405 64.1407 38.3905 64.3907C38.1404 64.6408 38 64.9799 38 65.3335V77.3335H27.3333V73.3335H34V70.6668H27.3333V68.0002H34V65.3335H27.3333V62.6669H34V60.0002H27.3333V57.3335H34V54.6669H27.3333V52.0002H40.6666V49.3335H33.041L33.7076 46.6669H40.6666V44.0002H32.6666C32.3693 44.0002 32.0805 44.0996 31.8461 44.2826C31.6117 44.4656 31.4453 44.7217 31.3731 45.0102L30.2923 49.3335H26C25.6464 49.3335 25.3072 49.474 25.0572 49.7241C24.8071 49.9741 24.6667 50.3132 24.6667 50.6669V77.3335H10V80.0002H89.9999V77.3335H75.3333ZM40.6666 66.6668H48.6666V77.3335H40.6666V66.6668Z" fill="#3766CC"/>
<path d="M49.9999 33.3334V24.0001C49.9999 23.6465 49.8594 23.3073 49.6094 23.0573C49.3593 22.8072 49.0202 22.6667 48.6666 22.6667H32.6666C32.313 22.6667 31.9738 22.8072 31.7238 23.0573C31.4737 23.3073 31.3333 23.6465 31.3333 24.0001V41.3334H33.9999V25.3334H47.3332V33.3334H49.9999Z" fill="#3766CC"/>
<path d="M42 28H44.6667V30.6667H42V28Z" fill="#3766CC"/>
<path d="M36.6667 28H39.3334V30.6667H36.6667V28Z" fill="#3766CC"/>
<path d="M36.6667 33.3335H39.3334V36.0002H36.6667V33.3335Z" fill="#3766CC"/>
<path d="M36.6667 38.6667H39.3334V41.3334H36.6667V38.6667Z" fill="#3766CC"/>
<path d="M48.6667 41.3335H52.6667V44.0002H48.6667V41.3335Z" fill="#3766CC"/>
<path d="M55.3333 41.3335H59.3332V44.0002H55.3333V41.3335Z" fill="#3766CC"/>
<path d="M48.6667 46.6667H52.6667V49.3334H48.6667V46.6667Z" fill="#3766CC"/>
<path d="M55.3333 46.6667H59.3332V49.3334H55.3333V46.6667Z" fill="#3766CC"/>
<path d="M48.6667 52H52.6667V54.6667H48.6667V52Z" fill="#3766CC"/>
<path d="M55.3333 52H59.3332V54.6667H55.3333V52Z" fill="#3766CC"/>
<path d="M48.6667 57.3335H52.6667V60.0002H48.6667V57.3335Z" fill="#3766CC"/>
<path d="M55.3333 57.3335H59.3332V60.0002H55.3333V57.3335Z" fill="#3766CC"/>
<path d="M55.3333 62.6667H59.3332V65.3334H55.3333V62.6667Z" fill="#3766CC"/>
<path d="M55.3333 68H59.3332V70.6667H55.3333V68Z" fill="#3766CC"/>
<path d="M11.3337 16.0009H15.3337V74.6675H18.0003V14.6676C18.0003 14.3139 17.8599 13.9748 17.6098 13.7248C17.3598 13.4747 17.0206 13.3342 16.667 13.3342H14.1078L22.0003 3.46857L29.8928 13.3342H27.3337C26.98 13.3342 26.6409 13.4747 26.3908 13.7248C26.1408 13.9748 26.0003 14.3139 26.0003 14.6676V46.6675H28.667V16.0009H32.667C32.9182 16.001 33.1643 15.93 33.377 15.7963C33.5897 15.6626 33.7603 15.4715 33.8691 15.2451C33.9779 15.0186 34.0205 14.766 33.9921 14.5164C33.9636 14.2668 33.8652 14.0303 33.7081 13.8342L23.0415 0.500905C22.9166 0.344759 22.7581 0.218709 22.5779 0.132087C22.3977 0.0454645 22.2003 0.000488281 22.0003 0.000488281C21.8004 0.000488281 21.603 0.0454645 21.4227 0.132087C21.2425 0.218709 21.0841 0.344759 20.9592 0.500905L10.2925 13.8342C10.1355 14.0303 10.0371 14.2668 10.0086 14.5164C9.98012 14.766 10.0227 15.0186 10.1316 15.2451C10.2404 15.4715 10.4109 15.6626 10.6236 15.7963C10.8363 15.93 11.0824 16.001 11.3337 16.0009Z" fill="#3766CC"/>
<path d="M67.3332 16.0002H71.3332V21.3335H73.9998V14.6668C73.9998 14.3132 73.8594 13.9741 73.6093 13.724C73.3593 13.474 73.0201 13.3335 72.6665 13.3335H70.1073L77.9998 3.46784L85.8923 13.3335H83.3332C82.9795 13.3335 82.6404 13.474 82.3904 13.724C82.1403 13.9741 81.9998 14.3132 81.9998 14.6668V74.6668H84.6665V16.0002H88.6665C88.9177 16.0002 89.1639 15.9293 89.3765 15.7956C89.5892 15.6619 89.7598 15.4708 89.8686 15.2443C89.9774 15.0179 90.02 14.7653 89.9916 14.5157C89.9631 14.2661 89.8647 14.0296 89.7077 13.8335L79.041 0.500172C78.9161 0.344027 78.7577 0.217977 78.5774 0.131354C78.3972 0.044732 78.1998 -0.000244141 77.9998 -0.000244141C77.7999 -0.000244141 77.6025 0.044732 77.4222 0.131354C77.242 0.217977 77.0836 0.344027 76.9587 0.500172L66.292 13.8335C66.135 14.0296 66.0366 14.2661 66.0081 14.5157C65.9796 14.7653 66.0223 15.0179 66.1311 15.2443C66.2399 15.4708 66.4105 15.6619 66.6231 15.7956C66.8358 15.9293 67.0819 16.0002 67.3332 16.0002Z" fill="#3766CC"/>
<path d="M39.3332 16.0002H43.3332V20.0002H45.9998V14.6668C45.9998 14.3132 45.8594 13.9741 45.6093 13.724C45.3593 13.474 45.0201 13.3335 44.6665 13.3335H42.1073L49.9998 3.46784L57.8923 13.3335H55.3332C54.9795 13.3335 54.6404 13.474 54.3904 13.724C54.1403 13.9741 53.9998 14.3132 53.9998 14.6668V20.0002H56.6665V16.0002H60.6665C60.9177 16.0002 61.1639 15.9293 61.3765 15.7956C61.5892 15.6619 61.7598 15.4708 61.8686 15.2443C61.9774 15.0179 62.02 14.7653 61.9916 14.5157C61.9631 14.2661 61.8647 14.0296 61.7077 13.8335L51.041 0.500172C50.9161 0.344027 50.7577 0.217977 50.5774 0.131354C50.3972 0.044732 50.1998 -0.000244141 49.9998 -0.000244141C49.7999 -0.000244141 49.6025 0.044732 49.4222 0.131354C49.242 0.217977 49.0836 0.344027 48.9587 0.500172L38.292 13.8335C38.135 14.0296 38.0366 14.2661 38.0081 14.5157C37.9796 14.7653 38.0223 15.0179 38.1311 15.2443C38.2399 15.4708 38.4105 15.6619 38.6231 15.7956C38.8358 15.9293 39.082 16.0002 39.3332 16.0002Z" fill="#3766CC"/>
</g>
<defs>
<clipPath id="clip0_1408_6">
<rect width="80" height="80" fill="white" transform="translate(10)"/>
</clipPath>
</defs>
</svg>
