<svg width="90" height="90" viewBox="0 0 90 90" fill="none" xmlns="http://www.w3.org/2000/svg">
<circle cx="70" cy="70" r="20" fill="white"/>
<g clip-path="url(#clip0_1408_13)">
<path d="M1.33362 80.1543H65.3335C66.0702 80.1543 66.6671 79.5574 66.6671 78.8213V66.8211H76C76.7367 66.8211 77.3336 66.2242 77.3336 65.4881V52.1543C77.3336 51.4183 76.7367 50.8213 76 50.8213H66.6671V38.8212C66.6671 38.0845 66.0702 37.4875 65.3335 37.4875H62.8866C63.0746 36.616 62.8756 35.7053 62.3415 34.9912L56.3167 26.9602L59.0987 24.8734C60.3347 23.9481 61.025 22.4649 60.9377 20.9231L60.804 18.522C60.7674 17.8708 61.0592 17.2445 61.581 16.8533L64.3624 14.7671L65.5331 16.3272C65.7449 16.6098 66.0604 16.7972 66.4108 16.8472C66.473 16.8558 66.5359 16.8606 66.5993 16.86C66.888 16.8606 67.1688 16.7666 67.3995 16.5933L78.4005 8.34071C80.1669 7.01563 80.5252 4.50891 79.2001 2.74193L78.4591 1.75316C77.1322 -0.0113715 74.6267 -0.368429 72.8591 0.954818L61.8593 9.2068C61.2704 9.6487 61.1507 10.4849 61.5926 11.0739L62.7627 12.6339L59.9813 14.7207C58.7453 15.646 58.0544 17.1286 58.1423 18.6703L58.2753 21.0715C58.3126 21.7227 58.0208 22.3495 57.499 22.7402L54.7176 24.827L48.6922 16.7959C48.0617 15.9421 47.0375 15.4715 45.9785 15.549C44.9684 15.6222 44.0657 16.2082 43.5866 17.1011L32.6307 37.4875H1.33362C0.596926 37.4875 0 38.0845 0 38.8212V52.1543C0 52.891 0.596926 53.488 1.33362 53.488H10.6665V64.1545H1.33362C0.596926 64.1545 0 64.7514 0 65.4881V78.8213C0 79.5574 0.596926 80.1543 1.33362 80.1543ZM74.4595 3.08739C75.0479 2.6455 75.8834 2.76452 76.3259 3.35351L77.0669 4.34228C77.5082 4.93127 77.3886 5.76624 76.8002 6.20813L66.8655 13.6612L64.5248 10.5398L74.4595 3.08739ZM24.0003 66.8211H42.6668V77.4877H24.0003V66.8211ZM34.6669 53.488H53.3333V64.1545H34.6669V53.488ZM64.0005 77.4877H45.3334V66.8211H64.0005V77.4877ZM74.667 64.1545H55.9999V53.488H74.667V64.1545ZM64.0005 50.8213H45.3334V43.057L58.9809 40.1542H64.0005V50.8213ZM45.9364 18.3645C45.9816 18.2712 46.0756 18.2113 46.1794 18.2083L46.2056 18.2071C46.3472 18.2095 46.4784 18.2797 46.559 18.3957L52.5832 26.4267L47.0827 30.5533C46.4937 30.9952 46.3741 31.8308 46.816 32.4204C47.2579 33.0094 48.0934 33.1284 48.683 32.6871L54.1835 28.5605L60.2083 36.5915C60.3042 36.7087 60.3322 36.8668 60.2816 37.009C60.2498 37.1079 60.1662 37.1805 60.0637 37.1988L33.6116 42.8239C33.4474 42.8495 33.2826 42.7793 33.188 42.6426C33.0818 42.5144 33.0604 42.3362 33.133 42.186L45.9364 18.3645ZM31.0554 44.2429C31.7659 45.2201 32.9853 45.6858 34.1664 45.4319L42.6668 43.624V50.8213H24.0003V40.1542H31.197L30.7838 40.9232C30.2125 41.9871 30.3193 43.2865 31.0554 44.2429ZM2.66664 45.4881H5.33327C6.06997 45.4881 6.66689 44.8911 6.66689 44.1544C6.66689 43.4183 6.06997 42.8214 5.33327 42.8214H2.66664V40.1542H21.3337V50.8213H2.66664V45.4881ZM13.3332 53.488H32.0002V64.1545H13.3332V53.488ZM2.66664 66.8211H21.3337V77.4877H2.66664V66.8211Z" fill="#3766CC"/>
<path d="M17.3334 44.1548C17.3334 43.4187 16.7365 42.8218 15.9998 42.8218H10.6665C9.93042 42.8218 9.3335 43.4187 9.3335 44.1548C9.3335 44.8915 9.93042 45.4884 10.6665 45.4884H15.9998C16.7365 45.4884 17.3334 44.8915 17.3334 44.1548Z" fill="#3766CC"/>
</g>
<defs>
<clipPath id="clip0_1408_13">
<rect width="80" height="80" fill="white"/>
</clipPath>
</defs>
</svg>
