<svg width="30" height="30" viewBox="0 0 30 30" fill="none" xmlns="http://www.w3.org/2000/svg">
<rect x="0.5" y="0.5" width="29" height="29" rx="2.5" stroke="white" stroke-opacity="0.5"/>
<g clip-path="url(#clip0_243_1472)">
<path d="M14.6365 7.50869C10.675 7.69731 7.54881 10.9965 7.56083 14.9624C7.56448 16.1704 7.8561 17.3105 8.37053 18.3179L7.5807 22.1518C7.53797 22.3592 7.72502 22.5408 7.93104 22.492L11.6878 21.6019C12.653 22.0827 13.7371 22.3604 14.8845 22.3779C18.9335 22.4398 22.3096 19.2247 22.4358 15.1772C22.5711 10.8386 18.9903 7.30134 14.6365 7.50869ZM19.1191 19.0583C18.0189 20.1586 16.5561 20.7645 15.0002 20.7645C14.0891 20.7645 13.2169 20.5601 12.4076 20.1569L11.8845 19.8963L9.58115 20.442L10.066 18.0885L9.80823 17.5837C9.38812 16.761 9.1751 15.8713 9.1751 14.9394C9.1751 13.3834 9.78101 11.9207 10.8812 10.8204C11.9716 9.73005 13.4583 9.11428 15.0003 9.11428C16.5562 9.11432 18.0189 9.72022 19.1192 10.8204C20.2194 11.9206 20.8253 13.3834 20.8253 14.9393C20.8253 16.4813 20.2095 17.968 19.1191 19.0583Z" fill="white" fill-opacity="0.5"/>
<path d="M18.6108 16.5527L17.1698 16.139C16.9803 16.0846 16.7763 16.1383 16.6382 16.279L16.2859 16.638C16.1373 16.7894 15.9118 16.8381 15.7151 16.7585C15.0335 16.4826 13.5995 15.2077 13.2333 14.5699C13.1277 14.386 13.1452 14.156 13.2749 13.9881L13.5825 13.5901C13.7031 13.4342 13.7285 13.2247 13.6488 13.0445L13.0425 11.6733C12.8973 11.3449 12.4776 11.2493 12.2034 11.4811C11.8013 11.8213 11.3241 12.3382 11.2661 12.9109C11.1638 13.9205 11.5968 15.1932 13.2342 16.7214C15.1258 18.4869 16.6406 18.7202 17.6269 18.4813C18.1863 18.3458 18.6333 17.8026 18.9155 17.3578C19.1078 17.0546 18.9559 16.6519 18.6108 16.5527Z" fill="white" fill-opacity="0.5"/>
</g>
<defs>
<clipPath id="clip0_243_1472">
<rect x="7.5" y="7.5" width="15" height="15" fill="white"/>
</clipPath>
</defs>
</svg>
