<svg width="30" height="30" viewBox="0 0 30 30" fill="none" xmlns="http://www.w3.org/2000/svg">
<rect x="0.5" y="0.5" width="29" height="29" rx="2.5" stroke="white" stroke-opacity="0.5"/>
<g clip-path="url(#clip0_243_1486)">
<path d="M22.4205 18.45C22.4023 18.4108 22.3854 18.3783 22.3697 18.3523C22.1094 17.8836 21.6121 17.3083 20.878 16.6262L20.8625 16.6106L20.8547 16.6029L20.8468 16.5951H20.839C20.5058 16.2775 20.2948 16.0639 20.2064 15.9546C20.0448 15.7463 20.0086 15.5355 20.0969 15.3219C20.1593 15.1605 20.3938 14.8196 20.7998 14.2989C21.0134 14.0229 21.1825 13.8017 21.3074 13.6351C22.2082 12.4375 22.5988 11.6722 22.4789 11.339L22.4324 11.2611C22.4011 11.2142 22.3204 11.1713 22.1904 11.1322C22.0601 11.0932 21.8936 11.0867 21.6904 11.1127L19.4413 11.1283C19.4048 11.1154 19.3528 11.1166 19.285 11.1322C19.2173 11.1479 19.1834 11.1557 19.1834 11.1557L19.1443 11.1753L19.1132 11.1988C19.0872 11.2143 19.0585 11.2416 19.0273 11.2807C18.9962 11.3196 18.9702 11.3653 18.9494 11.4174C18.7045 12.0474 18.4261 12.6331 18.1136 13.1745C17.921 13.4974 17.744 13.7772 17.5824 14.0141C17.4211 14.251 17.2857 14.4255 17.1765 14.5373C17.067 14.6493 16.9683 14.739 16.8796 14.8067C16.7911 14.8745 16.7235 14.9032 16.6767 14.8927C16.6297 14.8822 16.5856 14.8718 16.5437 14.8614C16.4709 14.8145 16.4123 14.7508 16.3681 14.6701C16.3238 14.5894 16.2939 14.4878 16.2783 14.3654C16.2627 14.243 16.2535 14.1377 16.2509 14.0492C16.2485 13.9607 16.2496 13.8356 16.2549 13.6742C16.2603 13.5128 16.2627 13.4035 16.2627 13.3462C16.2627 13.1483 16.2666 12.9336 16.2743 12.7019C16.2822 12.4702 16.2886 12.2866 16.2939 12.1514C16.2992 12.016 16.3017 11.8728 16.3017 11.7218C16.3017 11.5708 16.2925 11.4524 16.2743 11.3664C16.2564 11.2806 16.2288 11.1973 16.1925 11.1165C16.156 11.0358 16.1026 10.9734 16.0324 10.9291C15.9622 10.8848 15.8748 10.8497 15.7708 10.8236C15.4948 10.7611 15.1434 10.7273 14.7164 10.7221C13.748 10.7117 13.1258 10.7742 12.8498 10.9096C12.7405 10.9668 12.6416 11.045 12.5531 11.1438C12.4594 11.2584 12.4463 11.3209 12.514 11.3312C12.8264 11.378 13.0476 11.49 13.1778 11.667L13.2247 11.7608C13.2612 11.8285 13.2976 11.9483 13.3341 12.1201C13.3705 12.2918 13.394 12.4819 13.4043 12.69C13.4303 13.0702 13.4303 13.3956 13.4043 13.6663C13.3782 13.9371 13.3536 14.1479 13.3301 14.2989C13.3066 14.4499 13.2715 14.5723 13.2247 14.666C13.1778 14.7597 13.1465 14.817 13.1309 14.8377C13.1153 14.8585 13.1023 14.8716 13.0919 14.8768C13.0242 14.9027 12.9539 14.9159 12.881 14.9159C12.8081 14.9159 12.7196 14.8794 12.6155 14.8065C12.5114 14.7336 12.4034 14.6334 12.2914 14.5058C12.1795 14.3782 12.0532 14.1999 11.9126 13.9708C11.772 13.7418 11.6262 13.471 11.4753 13.1587L11.3503 12.9321C11.2722 12.7864 11.1655 12.5741 11.0302 12.2957C10.8947 12.017 10.775 11.7476 10.6709 11.4872C10.6293 11.3779 10.5668 11.2946 10.4835 11.2374L10.4444 11.2139C10.4184 11.1931 10.3767 11.171 10.3195 11.1475C10.2622 11.124 10.2024 11.1071 10.1398 11.0968L7.99993 11.1123C7.78126 11.1123 7.63289 11.1618 7.55476 11.2608L7.5235 11.3076C7.50788 11.3337 7.5 11.3753 7.5 11.4326C7.5 11.4899 7.51562 11.5602 7.54689 11.6434C7.85927 12.3776 8.19899 13.0857 8.56603 13.7677C8.93307 14.4498 9.25202 14.9992 9.52269 15.4155C9.79342 15.8321 10.0694 16.2252 10.3505 16.5948C10.6317 16.9645 10.8178 17.2014 10.9089 17.3055C11.0001 17.4097 11.0717 17.4877 11.1237 17.5398L11.319 17.7272C11.444 17.8521 11.6275 18.0018 11.8696 18.1762C12.1118 18.3507 12.3799 18.5225 12.674 18.6918C12.9683 18.8609 13.3105 18.9989 13.7011 19.1056C14.0916 19.2124 14.4716 19.2553 14.8413 19.2346H15.7395C15.9216 19.2189 16.0596 19.1616 16.1534 19.0627L16.1845 19.0236C16.2054 18.9925 16.225 18.9442 16.243 18.8793C16.2613 18.8142 16.2704 18.7425 16.2704 18.6645C16.265 18.4407 16.2821 18.2389 16.321 18.0593C16.36 17.8798 16.4043 17.7444 16.4539 17.6532C16.5035 17.5621 16.5595 17.4853 16.6218 17.423C16.6842 17.3605 16.7287 17.3227 16.7548 17.3097C16.7807 17.2966 16.8014 17.2877 16.817 17.2823C16.942 17.2407 17.0891 17.281 17.2584 17.4035C17.4277 17.5258 17.5864 17.6769 17.7349 17.8565C17.8833 18.0362 18.0616 18.2378 18.2698 18.4617C18.4782 18.6856 18.6603 18.852 18.8165 18.9615L18.9726 19.0553C19.0769 19.1178 19.2123 19.1751 19.3789 19.2271C19.5453 19.2791 19.691 19.2922 19.8162 19.2662L21.8154 19.235C22.0131 19.235 22.167 19.2022 22.2762 19.1373C22.3855 19.0722 22.4505 19.0005 22.4714 18.9225C22.4923 18.8444 22.4935 18.7559 22.4754 18.6568C22.4569 18.5581 22.4386 18.489 22.4205 18.45Z" fill="white" fill-opacity="0.5"/>
</g>
<defs>
<clipPath id="clip0_243_1486">
<rect x="7.5" y="7.5" width="15" height="15" fill="white"/>
</clipPath>
</defs>
</svg>
