<svg width="30" height="30" viewBox="0 0 30 30" fill="none" xmlns="http://www.w3.org/2000/svg">
<rect x="0.5" y="0.5" width="29" height="29" rx="2.5" stroke="white" stroke-opacity="0.5"/>
<g clip-path="url(#clip0_243_1478)">
<path d="M10.4506 15.5507C10.0675 16.3038 10.5025 16.6638 11.495 17.2788C12.3387 17.8001 13.5044 17.9907 14.2531 18.0669C13.9462 18.3619 15.3525 17.0094 11.3025 20.9051C10.4437 21.7282 11.8262 23.0488 12.6844 22.2432L15.0075 20.0026C15.8969 20.8582 16.7494 21.6782 17.3306 22.2463C18.1894 23.0551 19.5712 21.7457 18.7219 20.9082C18.6581 20.8476 15.5737 17.8888 15.7619 18.0701C16.52 17.9938 17.6681 17.7919 18.5019 17.2819L18.5012 17.2813C19.4937 16.6632 19.9287 16.3038 19.5512 15.5507C19.3231 15.1232 18.7081 14.7657 17.8894 15.3838C17.8894 15.3838 16.7837 16.2307 15.0006 16.2307C13.2169 16.2307 12.1119 15.3838 12.1119 15.3838C11.2937 14.7626 10.6762 15.1232 10.4506 15.5507Z" fill="white" fill-opacity="0.5"/>
<path d="M14.9994 15.0888C17.1732 15.0888 18.9482 13.39 18.9482 11.2988C18.9482 9.19875 17.1732 7.5 14.9994 7.5C12.825 7.5 11.05 9.19875 11.05 11.2988C11.05 13.39 12.825 15.0888 14.9994 15.0888ZM14.9994 9.42438C16.0675 9.42438 16.9388 10.2625 16.9388 11.2988C16.9388 12.3263 16.0675 13.1644 14.9994 13.1644C13.9313 13.1644 13.06 12.3263 13.06 11.2988C13.0594 10.2619 13.9307 9.42438 14.9994 9.42438Z" fill="white" fill-opacity="0.5"/>
</g>
<defs>
<clipPath id="clip0_243_1478">
<rect x="7.5" y="7.5" width="15" height="15" fill="white"/>
</clipPath>
</defs>
</svg>
